<svg width="353" height="193" viewBox="0 0 353 193" fill="none" xmlns="http://www.w3.org/2000/svg">
<path fill-rule="evenodd" clip-rule="evenodd" d="M9.29375 1.59803C2.61475 4.50703 -1.11325 12.106 0.295751 19.941C0.894751 23.272 10.3128 33.033 84.6568 107.378C159.002 181.722 168.763 191.14 172.094 191.739C181.578 193.445 176.069 198.34 267.031 107.378C357.967 16.442 353.134 21.88 351.372 12.49C350.449 7.56803 344.467 1.58603 339.545 0.66303C330.194 -1.09197 334.902 -5.22797 252.091 77.501L175.838 153.68L100.091 77.981C57.6667 35.584 23.1057 1.82203 21.5287 1.23703C17.7627 -0.161965 13.0127 -0.0219728 9.29375 1.59803Z" fill="black"/>
</svg>
