<svg width="492" height="488" viewBox="0 0 492 488" fill="none" xmlns="http://www.w3.org/2000/svg">
<path fill-rule="evenodd" clip-rule="evenodd" d="M456.474 0.50001C384.047 6.36701 311.754 34.738 249.474 81.734C235.106 92.576 226.456 100.174 209.474 116.866L194.474 131.61L182.474 132.214C123.089 135.204 59.2754 163.036 15.6774 204.96C7.41142 212.909 6.96342 213.558 6.96842 217.574C6.97342 220.776 7.64542 222.559 9.72542 224.887L12.4764 227.966L55.2414 234.173L98.0074 240.381L92.0824 247.055C85.3534 254.635 84.0944 258.183 86.4054 263.053C88.5254 267.522 225.635 404.425 229.398 405.83C233.958 407.534 237.52 406.136 244.768 399.797L251.474 393.933L257.474 435.688C261.75 465.444 263.967 478.193 265.189 480.052C267.572 483.679 272.943 485.335 277.473 483.84C283.65 481.802 301.561 460.988 316.199 438.84C341.235 400.957 357.418 352.67 359.6 309.34L360.204 297.34L374.948 282.34C397.188 259.714 409.477 244.691 425.809 220.163C467.146 158.081 491.995 82.165 491.97 18.036C491.966 7.22501 490.221 2.64501 485.408 0.81501C483.05 -0.0819898 465.955 -0.26799 456.474 0.50001ZM356.261 94.313C377.013 98.71 393.104 114.801 397.501 135.553C398.292 139.286 398.939 144.14 398.939 146.34C398.939 165.234 386.461 185.462 369.761 193.641C362.639 197.129 352.094 199.805 345.474 199.805C326.641 199.805 306.325 187.273 298.173 170.627C294.685 163.505 292.009 152.96 292.009 146.34C292.009 133.101 298.159 118.655 307.974 108.84C321.037 95.777 338.45 90.539 356.261 94.313ZM95.5054 317.953C83.2304 319.741 71.8114 324.923 61.4654 333.401C47.9894 344.443 31.6364 379.671 10.3354 443.546C-1.05458 477.698 -1.43258 479.888 3.24742 484.567C7.94342 489.263 10.1734 488.881 44.0684 477.577C108.062 456.234 143.347 439.853 154.413 426.349C176.684 399.171 175.756 362.519 152.167 337.638C142.032 326.947 128.524 320.067 113.372 317.877C105.511 316.74 103.781 316.748 95.5054 317.953Z" fill="white"/>
</svg>
